<svg width="710" height="710" viewBox="0 0 710 710" fill="none" xmlns="http://www.w3.org/2000/svg">
<path d="M353.744 25.9624C357.585 50.1985 374.745 100.282 402.42 106.333C371.837 118.623 361.178 141.883 355.433 157.727C354.11 164.082 351.552 171.001 347.277 178.421C338.399 193.832 330.728 193.364 330.645 193.358C325.737 171.923 317.501 159.269 303.376 146.992C289.256 134.586 273.541 128.049 256.23 127.381C237.879 126.673 222.665 130.778 210.59 139.697C198.65 148.491 189.573 160.785 183.358 176.578C177.274 192.375 173.84 210.427 173.057 230.73C172.54 244.136 173.141 257.26 174.862 270.1C176.587 282.81 179.988 294.347 185.062 304.709C190.272 314.947 197.708 323.25 207.368 329.619C217.159 335.993 229.799 339.478 245.286 340.076C245.698 340.092 246.109 340.104 246.515 340.117C259.061 339.449 290.84 320.801 289.231 286.551C287.688 253.692 277.862 241.276 272.399 238.88C268.477 237.676 263.636 236.963 257.877 236.74L258.419 222.684L315.719 224.894C341.723 225.897 358.384 199.944 363.464 186.842L367.684 221.443L360.037 226.604L373.019 227.105L371.393 240.471C359.159 239.999 357.25 240.402 353.676 245.218C350.231 250.038 346.212 257.293 344.213 272.844C342.213 288.395 339.114 321.177 331.458 333.039C323.802 344.9 309.056 351.139 291.855 354.386C274.785 357.638 255.902 358.864 235.207 358.066C212.952 357.207 193.759 352.948 177.631 345.287C161.633 337.631 148.461 327.672 138.116 315.411C127.905 303.025 120.418 289.311 115.654 274.267C111.02 259.229 109.004 243.901 109.607 228.282C110.21 212.664 113.791 197.551 120.35 182.945C126.915 168.209 136.088 155.136 147.868 143.729C159.653 132.192 173.816 123.223 190.356 116.822C206.896 110.422 225.514 107.62 246.209 108.419C259.094 108.916 270.297 110.783 279.818 114.018C289.469 117.258 297.555 120.503 304.078 123.752C310.735 126.876 315.886 128.509 319.53 128.649C321.873 128.74 323.61 127.633 324.742 125.331C325.092 124.582 325.405 123.811 325.682 123.022C325.682 123.008 325.682 122.995 325.682 122.981C325.643 117.654 322.047 113.14 318.464 110.107C316.891 108.963 315.252 107.844 313.546 106.752C311.331 105.334 309.003 103.961 306.556 102.635C333.696 96.7047 349.323 49.0493 353.744 25.9624Z" fill="#F7C948"/>
<path d="M369.782 173.279C349.814 223.692 287.285 227.667 258.516 223.353L261.952 227.691L332.364 240.02L363.387 214.484C368.513 206.171 376.97 186.292 369.782 173.279Z" fill="#F7C948"/>
<path d="M355.569 684.194C351.728 659.958 334.568 609.873 306.892 603.822C337.479 591.53 348.136 568.267 353.881 552.422C355.205 546.07 357.762 539.153 362.036 531.735C370.925 516.305 378.604 516.793 378.668 516.798C383.576 538.234 391.811 550.888 405.937 563.164C420.057 575.57 435.772 582.108 453.083 582.775C471.434 583.483 486.648 579.378 498.723 570.46C510.663 561.666 519.74 549.371 525.955 533.579C532.039 517.781 535.473 499.73 536.256 479.426C536.773 466.02 536.172 452.897 534.451 440.056C532.726 427.346 529.325 415.81 524.251 405.447C519.041 395.209 511.605 386.906 501.945 380.537C492.154 374.164 479.514 370.678 464.027 370.08C463.61 370.064 463.196 370.051 462.785 370.039C450.23 370.719 418.473 389.366 420.082 423.605C421.626 456.477 431.459 468.889 436.921 471.277C440.841 472.48 445.68 473.194 451.436 473.416L450.894 487.473L393.594 485.262C367.59 484.259 350.929 510.212 345.849 523.315L341.629 488.713L349.276 483.552L336.294 483.051L337.92 469.685C350.154 470.157 352.063 469.754 355.637 464.939C359.082 460.118 363.101 452.863 365.1 437.312C367.1 421.761 370.199 388.979 377.855 377.118C385.511 365.257 400.257 359.017 417.458 355.77C434.528 352.519 453.411 351.292 474.106 352.09C496.362 352.949 515.554 357.208 531.682 364.869C547.68 372.525 560.852 382.484 571.197 394.745C581.408 407.131 588.895 420.845 593.659 435.889C598.293 450.927 600.309 466.256 599.706 481.874C599.103 497.492 595.522 512.605 588.963 527.211C582.398 541.948 573.225 555.02 561.445 566.427C549.66 577.964 535.497 586.933 518.957 593.334C502.417 599.734 483.799 602.535 463.104 601.736C450.219 601.239 439.016 599.374 429.495 596.139C419.844 592.899 411.758 589.654 405.235 586.404C398.578 583.28 393.427 581.648 389.783 581.507C387.44 581.416 385.703 582.523 384.571 584.825C384.221 585.574 383.908 586.345 383.631 587.134C383.631 587.148 383.631 587.162 383.631 587.175C383.67 592.502 387.266 597.016 390.849 600.049C392.422 601.193 394.06 602.312 395.766 603.404C397.981 604.822 400.31 606.195 402.757 607.521C375.616 613.451 359.99 661.107 355.569 684.194Z" fill="#F7C948"/>
<path d="M339.531 536.877C359.498 486.464 422.028 482.489 450.797 486.803L447.36 482.465L376.949 470.136L345.926 495.672C340.8 503.985 332.343 523.864 339.531 536.877Z" fill="#F7C948"/>
<path d="M686.347 352.469C662.111 356.31 612.027 373.47 605.975 401.145C593.686 370.564 570.428 359.906 554.583 354.16C548.229 352.837 541.31 350.279 533.889 346.003C518.488 337.131 518.946 329.464 518.952 329.371C540.388 324.463 553.042 316.228 565.318 302.102C577.724 287.982 584.262 272.267 584.93 254.956C585.638 236.605 581.533 221.391 572.614 209.316C563.82 197.376 551.526 188.299 535.733 182.085C519.935 176 501.884 172.566 481.58 171.783C468.174 171.266 455.051 171.867 442.211 173.588C429.501 175.313 417.964 178.714 407.601 183.788C397.364 188.998 389.06 196.434 382.692 206.095C376.318 215.885 372.832 228.525 372.235 244.013C372.219 244.424 372.206 244.834 372.194 245.24C372.861 257.786 391.509 289.567 425.76 287.957C458.618 286.414 471.035 276.589 473.431 271.125C474.634 267.203 475.348 262.362 475.57 256.603L489.627 257.145L487.416 314.445C486.413 340.45 512.367 357.11 525.469 362.19L490.867 366.41L485.706 358.763L485.205 371.745L471.839 370.118C472.311 357.885 471.908 355.976 467.093 352.402C462.273 348.957 455.017 344.939 439.467 342.939C423.915 340.939 391.134 337.84 379.272 330.184C367.411 322.528 361.17 307.782 357.924 290.581C354.672 273.511 353.446 254.628 354.245 233.934C355.103 211.678 359.363 192.485 367.024 176.357C374.68 160.359 384.638 147.187 396.898 136.842C409.284 126.631 423 119.144 438.043 114.38C453.081 109.747 468.41 107.731 484.028 108.333C499.646 108.936 514.759 112.517 529.365 119.076C544.102 125.641 557.174 134.814 568.581 146.594C580.118 158.379 589.088 172.542 595.488 189.082C601.888 205.622 604.689 224.241 603.891 244.935C603.394 257.82 601.528 269.023 598.293 278.544C595.053 288.195 591.808 296.282 588.558 302.804C585.434 309.461 583.802 314.612 583.661 318.256C583.571 320.599 584.677 322.337 586.979 323.468C587.728 323.818 588.496 324.13 589.285 324.407C589.299 324.407 589.314 324.407 589.329 324.407C594.656 324.368 599.169 320.772 602.202 317.189C603.346 315.616 604.465 313.978 605.558 312.272C606.975 310.058 608.348 307.728 609.674 305.281C615.604 332.422 663.26 348.048 686.347 352.469Z" fill="#F7C948"/>
<path d="M539.03 368.507C488.617 348.54 484.642 286.01 488.956 257.241L484.618 260.678L472.289 331.089L497.826 362.112C506.138 367.239 526.017 375.695 539.03 368.507Z" fill="#F7C948"/>
<path d="M22.9661 357.682C47.2022 353.84 97.2852 336.681 103.337 309.006C115.627 339.588 138.885 350.246 154.73 355.992C161.085 357.315 168.003 359.873 175.424 364.148C190.861 373.042 190.365 380.724 190.361 380.781C168.925 385.689 156.271 393.923 143.995 408.048C131.589 422.169 125.051 437.884 124.384 455.195C123.675 473.546 127.78 488.76 136.699 500.835C145.493 512.775 157.787 521.852 173.58 528.066C189.378 534.15 207.429 537.585 227.733 538.368C241.139 538.885 254.262 538.284 267.103 536.563C279.813 534.838 291.349 531.437 301.712 526.363C311.949 521.153 320.253 513.718 326.622 504.057C332.995 494.267 336.481 481.626 337.079 466.138C337.095 465.727 337.107 465.317 337.119 464.91C336.452 452.365 317.805 420.585 283.553 422.194C250.698 423.738 238.281 433.561 235.884 439.025C234.68 442.947 233.965 447.788 233.743 453.548L219.686 453.006L221.897 395.706C222.9 369.701 196.947 353.041 183.844 347.961L218.446 343.742L223.607 351.389L224.108 338.406L237.474 340.033C237.002 352.267 237.405 354.174 242.22 357.749C247.041 361.194 254.295 365.212 269.847 367.212C285.398 369.212 318.18 372.311 330.041 379.967C341.902 387.623 348.142 402.369 351.389 419.569C354.64 436.64 355.867 455.523 355.069 476.217C354.21 498.473 349.95 517.666 342.29 533.794C334.634 549.792 324.674 562.964 312.414 573.31C300.028 583.52 286.313 591.008 271.27 595.772C256.232 600.405 240.903 602.42 225.285 601.818C209.667 601.215 194.554 597.634 179.948 591.075C165.211 584.51 152.139 575.338 140.731 563.558C129.194 551.772 120.226 537.609 113.825 521.069C107.425 504.529 104.623 485.91 105.422 465.216C105.919 452.331 107.785 441.128 111.02 431.607C114.26 421.956 117.505 413.869 120.755 407.347C123.879 400.69 125.511 395.539 125.652 391.895C125.742 389.552 124.636 387.814 122.334 386.683C121.585 386.333 120.816 386.021 120.028 385.744C120.013 385.744 119.998 385.744 119.984 385.744C114.657 385.783 110.144 389.379 107.111 392.962C105.967 394.535 104.848 396.174 103.756 397.88C102.338 400.094 100.964 402.423 99.6384 404.87C93.7083 377.729 46.053 362.102 22.9661 357.682Z" fill="#F7C948"/>
<path d="M170.283 341.644C220.696 361.612 224.671 424.142 220.357 452.91L224.695 449.474L237.024 379.062L211.487 348.04C203.175 342.913 183.296 334.456 170.283 341.644Z" fill="#F7C948"/>
</svg>
