<svg width="710" height="710" viewBox="0 0 710 710" fill="none" xmlns="http://www.w3.org/2000/svg">
<path d="M353.863 25.9624C357.704 50.1985 374.863 100.282 402.538 106.333C371.956 118.623 361.297 141.883 355.551 157.727C354.228 164.082 351.671 171.001 347.396 178.421C338.518 193.832 330.846 193.364 330.764 193.358C325.855 171.923 317.62 159.269 303.495 146.992C289.375 134.586 273.659 128.049 256.349 127.381C237.997 126.673 222.783 130.778 210.708 139.697C198.768 148.491 189.691 160.785 183.477 176.578C177.393 192.375 173.959 210.427 173.175 230.73C172.658 244.136 173.26 257.26 174.98 270.1C176.706 282.81 180.106 294.347 185.181 304.709C190.391 314.947 197.826 323.25 207.487 329.619C217.278 335.993 229.917 339.478 245.405 340.076C245.817 340.092 246.227 340.104 246.634 340.117C259.18 339.449 290.959 320.801 289.35 286.551C287.806 253.692 277.981 241.276 272.517 238.88C268.596 237.676 263.755 236.963 257.995 236.74L258.537 222.684L315.837 224.894C341.842 225.897 358.503 199.944 363.582 186.842L367.802 221.443L360.155 226.604L373.138 227.105L371.512 240.471C359.277 239.999 357.369 240.402 353.794 245.218C350.349 250.038 346.331 257.293 344.331 272.844C342.332 288.395 339.232 321.177 331.576 333.039C323.92 344.9 309.174 351.139 291.974 354.386C274.903 357.638 256.02 358.864 235.326 358.066C213.07 357.207 193.877 352.948 177.749 345.287C161.752 337.631 148.58 327.672 138.234 315.411C128.024 303.025 120.536 289.311 115.772 274.267C111.139 259.229 109.123 243.901 109.725 228.282C110.328 212.664 113.909 197.551 120.469 182.945C127.033 168.209 136.206 155.136 147.986 143.729C159.772 132.192 173.934 123.223 190.474 116.822C207.015 110.422 225.633 107.62 246.327 108.419C259.212 108.916 270.415 110.783 279.936 114.018C289.587 117.258 297.674 120.503 304.196 123.752C310.853 126.876 316.004 128.509 319.649 128.649C321.991 128.74 323.729 127.633 324.86 125.331C325.211 124.582 325.523 123.811 325.801 123.022C325.801 123.008 325.8 122.995 325.8 122.981C325.761 117.654 322.166 113.14 318.582 110.107C317.009 108.963 315.371 107.844 313.664 106.752C311.45 105.334 309.121 103.961 306.674 102.635C333.815 96.7047 349.442 49.0493 353.863 25.9624Z" fill="black"/>
<path d="M369.9 173.279C349.933 223.692 287.403 227.667 258.634 223.353L262.071 227.691L332.483 240.02L363.505 214.484C368.632 206.171 377.088 186.292 369.9 173.279Z" fill="black"/>
<path d="M355.688 684.194C351.846 659.958 334.686 609.873 307.011 603.822C337.597 591.53 348.255 568.267 354 552.422C355.324 546.07 357.881 539.153 362.154 531.735C371.044 516.305 378.723 516.793 378.786 516.798C383.695 538.234 391.93 550.888 406.055 563.164C420.175 575.57 435.891 582.108 453.201 582.775C471.553 583.483 486.767 579.378 498.842 570.46C510.782 561.666 519.859 549.371 526.073 533.579C532.157 517.781 535.591 499.73 536.375 479.426C536.892 466.02 536.29 452.897 534.57 440.056C532.844 427.346 529.444 415.81 524.369 405.447C519.159 395.209 511.724 386.906 502.063 380.537C492.273 374.164 479.633 370.678 464.145 370.08C463.729 370.064 463.315 370.051 462.904 370.039C450.349 370.719 418.592 389.366 420.2 423.605C421.745 456.477 431.577 468.889 437.04 471.277C440.96 472.48 445.799 473.194 451.555 473.416L451.013 487.473L393.713 485.262C367.708 484.259 351.048 510.212 345.968 523.315L341.748 488.713L349.395 483.552L336.413 483.051L338.038 469.685C350.273 470.157 352.181 469.754 355.756 464.939C359.201 460.118 363.219 452.863 365.219 437.312C367.218 421.761 370.318 388.979 377.974 377.118C385.63 365.257 400.376 359.017 417.576 355.77C434.647 352.519 453.53 351.292 474.224 352.09C496.48 352.949 515.673 357.208 531.801 364.869C547.799 372.525 560.97 382.484 571.316 394.745C581.526 407.131 589.014 420.845 593.778 435.889C598.411 450.927 600.427 466.256 599.825 481.874C599.222 497.492 595.641 512.605 589.081 527.211C582.517 541.948 573.344 555.02 561.564 566.427C549.779 577.964 535.616 586.933 519.076 593.334C502.535 599.734 483.917 602.535 463.223 601.736C450.338 601.239 439.135 599.374 429.614 596.139C419.963 592.899 411.876 589.654 405.354 586.404C398.697 583.28 393.546 581.648 389.901 581.507C387.559 581.416 385.821 582.523 384.69 584.825C384.339 585.574 384.027 586.345 383.749 587.134C383.749 587.148 383.75 587.162 383.75 587.175C383.789 592.502 387.384 597.016 390.968 600.049C392.54 601.193 394.179 602.312 395.885 603.404C398.099 604.822 400.429 606.195 402.876 607.521C375.735 613.451 360.108 661.107 355.688 684.194Z" fill="black"/>
<path d="M339.649 536.877C359.617 486.464 422.147 482.489 450.916 486.803L447.479 482.465L377.067 470.136L346.045 495.672C340.918 503.985 332.462 523.864 339.649 536.877Z" fill="black"/>
<path d="M686.466 352.469C662.23 356.31 612.146 373.47 606.094 401.145C593.805 370.564 570.546 359.906 554.702 354.16C548.347 352.837 541.429 350.279 534.008 346.003C518.607 337.131 519.065 329.464 519.071 329.371C540.506 324.463 553.161 316.228 565.437 302.102C577.843 287.982 584.38 272.267 585.048 254.956C585.756 236.605 581.651 221.391 572.732 209.316C563.939 197.376 551.644 188.299 535.852 182.085C520.054 176 502.002 172.566 481.699 171.783C468.293 171.266 455.17 171.867 442.329 173.588C429.619 175.313 418.083 178.714 407.72 183.788C397.482 188.998 389.179 196.434 382.81 206.095C376.437 215.885 372.951 228.525 372.353 244.013C372.337 244.424 372.325 244.834 372.313 245.24C372.98 257.786 391.627 289.567 425.878 287.957C458.736 286.414 471.153 276.589 473.549 271.125C474.753 267.203 475.467 262.362 475.689 256.603L489.746 257.145L487.535 314.445C486.532 340.45 512.485 357.11 525.588 362.19L490.986 366.41L485.825 358.763L485.324 371.745L471.958 370.118C472.43 357.885 472.026 355.976 467.212 352.402C462.391 348.957 455.136 344.939 439.585 342.939C424.034 340.939 391.252 337.84 379.391 330.184C367.529 322.528 361.289 307.782 358.042 290.581C354.791 273.511 353.565 254.628 354.363 233.934C355.222 211.678 359.481 192.485 367.142 176.357C374.798 160.359 384.757 147.187 397.017 136.842C409.403 126.631 423.118 119.144 438.162 114.38C453.2 109.747 468.529 107.731 484.147 108.333C499.765 108.936 514.878 112.517 529.484 119.076C544.221 125.641 557.292 134.814 568.699 146.594C580.236 158.379 589.206 172.542 595.607 189.082C602.007 205.622 604.808 224.241 604.009 244.935C603.512 257.82 601.646 269.023 598.412 278.544C595.172 288.195 591.927 296.282 588.677 302.804C585.553 309.461 583.921 314.612 583.78 318.256C583.69 320.599 584.795 322.337 587.098 323.468C587.846 323.818 588.615 324.13 589.403 324.407C589.418 324.407 589.433 324.407 589.447 324.407C594.774 324.368 599.288 320.772 602.321 317.189C603.465 315.616 604.584 313.978 605.676 312.272C607.094 310.058 608.467 307.728 609.793 305.281C615.723 332.422 663.379 348.048 686.466 352.469Z" fill="black"/>
<path d="M539.149 368.507C488.736 348.54 484.761 286.01 489.074 257.241L484.737 260.678L472.408 331.089L497.944 362.112C506.257 367.239 526.136 375.695 539.149 368.507Z" fill="black"/>
<path d="M23.0847 357.682C47.3209 353.84 97.4039 336.681 103.456 309.006C115.745 339.588 139.004 350.246 154.848 355.992C161.203 357.315 168.122 359.873 175.543 364.148C190.98 373.042 190.484 380.724 190.48 380.781C169.044 385.689 156.39 393.923 144.114 408.048C131.707 422.169 125.17 437.884 124.502 455.195C123.794 473.546 127.899 488.76 136.818 500.835C145.612 512.775 157.906 521.852 173.699 528.066C189.497 534.15 207.548 537.585 227.852 538.368C241.258 538.885 254.381 538.284 267.221 536.563C279.931 534.838 291.468 531.437 301.831 526.363C312.068 521.153 320.372 513.718 326.74 504.057C333.114 494.267 336.6 481.626 337.197 466.138C337.213 465.727 337.226 465.317 337.238 464.91C336.571 452.365 317.923 420.585 283.672 422.194C250.817 423.738 238.4 433.561 236.002 439.025C234.798 442.947 234.084 447.788 233.862 453.548L219.805 453.006L222.016 395.706C223.019 369.701 197.065 353.041 183.963 347.961L218.564 343.742L223.726 351.389L224.226 338.406L237.593 340.033C237.121 352.267 237.524 354.174 242.339 357.749C247.159 361.194 254.414 365.212 269.965 367.212C285.517 369.212 318.298 372.311 330.16 379.967C342.021 387.623 348.261 402.369 351.507 419.569C354.759 436.64 355.986 455.523 355.187 476.217C354.329 498.473 350.069 517.666 342.408 533.794C334.752 549.792 324.793 562.964 312.532 573.31C300.147 583.52 286.432 591.008 271.389 595.772C256.351 600.405 241.022 602.42 225.404 601.818C209.785 601.215 194.673 597.634 180.066 591.075C165.33 584.51 152.257 575.338 140.85 563.558C129.313 551.772 120.344 537.609 113.944 521.069C107.543 504.529 104.742 485.91 105.54 465.216C106.037 452.331 107.904 441.128 111.139 431.607C114.379 421.956 117.624 413.869 120.873 407.347C123.998 400.69 125.63 395.539 125.771 391.895C125.861 389.552 124.755 387.814 122.453 386.683C121.704 386.333 120.935 386.021 120.146 385.744C120.132 385.744 120.117 385.744 120.102 385.744C114.775 385.783 110.263 389.379 107.229 392.962C106.086 394.535 104.967 396.174 103.874 397.88C102.457 400.094 101.083 402.423 99.757 404.87C93.827 377.729 46.1716 362.102 23.0847 357.682Z" fill="black"/>
<path d="M170.402 341.644C220.814 361.612 224.79 424.142 220.476 452.91L224.814 449.474L237.142 379.062L211.606 348.04C203.293 342.913 183.415 334.456 170.402 341.644Z" fill="black"/>
</svg>
